<?xml version="1.0" encoding="utf-8"?>
<!DOCTYPE svg PUBLIC "-//W3C//DTD SVG 1.1//EN" "http://www.w3.org/Graphics/SVG/1.1/DTD/svg11.dtd" [
	<!ENTITY ns_flows "http://ns.adobe.com/Flows/1.0/">
]>
<svg version="1.1"
	 xmlns="http://www.w3.org/2000/svg" xmlns:xlink="http://www.w3.org/1999/xlink"
	 x="0px" y="0px" width="240px" height="30px" viewBox="0 0 240 30" overflow="visible" enable-background="new 0 0 240 30"
	 xml:space="preserve">
<defs>
</defs>
<rect fill="none" width="240" height="30"/>
<polyline fill="#234CA6" points="26.785,11.895 26.785,20.756 17.923,11.895 17.923,29.616 12.015,29.616 12.015,11.895
	3.154,20.756 3.154,11.895 14.97,0.078 26.785,11.895 "/>
<polyline fill="#234CA6" points="56.569,20.223 50.302,26.488 50.302,13.955 37.772,26.485 33.594,22.308 46.125,9.777
	33.592,9.777 39.859,3.512 56.569,3.513 56.569,20.223 "/>
<polyline fill="#234CA6" points="77.881,26.52 69.021,26.52 77.882,17.657 60.161,17.657 60.162,11.749 77.882,11.749 69.021,2.888
	77.882,2.888 89.698,14.704 77.881,26.52 "/>
<polyline fill="#234CA6" points="99.598,26.717 93.332,20.451 105.865,20.451 93.333,7.92 97.512,3.743 110.042,16.274
	110.042,3.741 116.308,10.007 116.308,26.718 99.598,26.717 "/>
<polyline fill="#234CA6" points="123.076,17.759 123.076,8.897 131.938,17.759 131.938,0.038 137.847,0.039 137.847,17.758
	146.708,8.896 146.708,17.758 134.891,29.576 123.076,17.759 "/>
<polyline fill="#234CA6" points="213.476,10.008 219.741,3.742 219.741,16.274 232.273,3.744 236.449,7.921 223.919,20.452
	236.452,20.452 230.186,26.718 213.475,26.718 213.476,10.008 "/>
<polyline fill="#234CA6" points="192.128,3.179 200.99,3.179 192.128,12.041 209.85,12.043 209.85,17.949 192.128,17.95
	200.99,26.812 192.128,26.812 180.311,14.995 192.128,3.179 "/>
<polyline fill="#234CA6" points="170.186,3.273 176.452,9.539 163.919,9.539 176.449,22.071 172.272,26.247 159.74,13.717
	159.74,26.25 153.475,19.984 153.475,3.271 170.186,3.273 "/>
</svg>
